# This file uses centimeters as units for non-parametric coordinates.

mtllib camera.mtl
g default
v 0.615158 5.018730 1.186568
v 0.615158 6.671967 -0.014580
v 0.615158 8.715481 -0.014580
v 0.615158 10.368719 1.186568
v 0.615158 11.000199 3.130065
v 0.615158 10.368719 5.073563
v 0.615158 8.715481 6.274711
v 0.615158 6.671967 6.274711
v 0.615158 5.018730 5.073562
v 0.615158 4.387249 3.130065
v 0.615158 5.018730 5.073562
v -0.615158 5.018730 5.073562
v 0.615158 6.671967 -0.014580
v -0.615158 8.715481 -0.014580
v 0.615158 8.715481 -0.014580
v -0.615158 6.671967 -0.014580
v 0.615158 8.715481 -0.014580
v -0.615158 8.715481 -0.014580
v -0.615158 10.368719 5.073563
v -0.615158 11.000199 3.130065
v 0.615158 11.000199 3.130065
v 0.615158 5.018730 1.186568
v 0.615158 6.671967 6.274711
v -0.615158 6.671967 6.274711
v -0.615158 5.018730 1.186568
v 0.615158 10.368719 5.073563
v 0.615158 10.368719 1.186568
v -0.615158 4.387249 3.130065
v 0.615158 4.387249 3.130065
v -0.615158 10.368719 1.186568
v 0.615158 8.715481 6.274711
v -0.615158 8.715481 6.274711
v -0.615158 6.671967 6.274711
v -0.615158 8.715481 6.274711
v -0.615158 10.368719 5.073563
v -0.615158 11.000199 3.130065
v -0.615158 10.368719 1.186568
v -0.615158 8.715481 -0.014580
v -0.615158 6.671967 -0.014580
v -0.615158 5.018730 1.186568
v -0.615158 4.387249 3.130065
v -0.615158 5.018730 5.073562
v 0.615158 5.018731 -5.813432
v 0.615158 6.671968 -7.014579
v 0.615158 8.715481 -7.014579
v 0.615158 10.368719 -5.813432
v 0.615158 11.000199 -3.869935
v 0.615158 10.368719 -1.926437
v 0.615158 8.715481 -0.725290
v 0.615158 6.671967 -0.725290
v 0.615158 5.018730 -1.926438
v 0.615158 4.387249 -3.869935
v -0.615158 5.018730 -1.926438
v 0.615158 5.018730 -1.926438
v 0.615158 6.671968 -7.014579
v 0.615158 8.715481 -7.014579
v -0.615158 6.671968 -7.014579
v -0.615158 8.715481 -7.014579
v 0.615158 8.715481 -7.014579
v -0.615158 8.715481 -7.014579
v -0.615158 4.387249 -3.869935
v -0.615158 11.000199 -3.869935
v 0.615158 4.387249 -3.869935
v 0.615158 6.671967 -0.725290
v -0.615158 6.671967 -0.725290
v 0.615158 10.368719 -1.926437
v -0.615158 10.368719 -1.926437
v 0.615158 5.018731 -5.813432
v 0.615158 10.368719 -5.813432
v -0.615158 5.018731 -5.813432
v 0.615158 11.000199 -3.869935
v -0.615158 10.368719 -5.813432
v 0.615158 8.715481 -0.725290
v -0.615158 8.715481 -0.725290
v -0.615158 6.671967 -0.725290
v -0.615158 8.715481 -0.725290
v -0.615158 10.368719 -1.926437
v -0.615158 11.000199 -3.869935
v -0.615158 10.368719 -5.813432
v -0.615158 8.715481 -7.014579
v -0.615158 6.671968 -7.014579
v -0.615158 5.018731 -5.813432
v -0.615158 4.387249 -3.869935
v -0.615158 5.018730 -1.926438
v -2.235977 4.000000 -5.856866
v 2.235977 4.000000 -5.856866
v 2.235977 -4.000000 -5.856866
v -2.235977 -4.000000 -5.856866
v 2.235977 -4.000000 -5.856866
v 2.235977 -4.000000 5.856866
v -2.235977 -4.000000 5.856866
v -2.235977 -4.000000 -5.856866
v -2.235977 -4.000000 5.856866
v -2.235977 -4.000000 -5.856866
v -2.235977 4.000000 5.856866
v -2.235977 4.000000 -5.856866
v 2.235977 4.000000 -5.856866
v 2.235977 4.000000 5.856866
v 2.235977 -4.000000 5.856866
v 2.235977 -4.000000 -5.856866
v -2.235977 4.000000 5.856866
v 2.235977 4.000000 5.856866
v -2.235977 4.000000 -5.856866
v 2.235977 4.000000 -5.856866
v 2.235977 -4.000000 5.856866
v 2.235977 4.000000 5.856866
v -2.235977 4.000000 5.856866
v -2.235977 -4.000000 5.856866
v 0.615869 1.066716 4.912492
v 0.615869 1.066716 8.712070
v -1.159073 -2.007572 10.891529
v -1.159073 -2.007572 9.071793
v -0.615869 -1.066716 4.912492
v -0.615869 -1.066716 8.712070
v 1.159073 -2.007572 10.891529
v 2.318145 -0.000000 10.891529
v 1.159073 2.007571 10.891529
v -1.159073 2.007571 10.891529
v -2.318145 -0.000000 10.891529
v -1.159073 -2.007572 10.891529
v 1.159073 -2.007572 10.891529
v 1.159073 -2.007572 9.071793
v 0.615869 -1.066716 8.712070
v 0.615869 -1.066716 4.912492
v 1.159073 2.007571 10.891529
v 2.318145 -0.000000 9.071793
v 1.159073 2.007571 9.071793
v 2.318145 -0.000000 10.891529
v 1.159073 2.007571 10.891529
v 1.159073 2.007571 9.071793
v 0.615869 1.066716 4.912492
v 1.231738 -0.000000 4.912492
v 1.231738 -0.000000 8.712070
v -0.615869 1.066716 4.912492
v -1.231738 -0.000000 4.912492
v -1.159073 2.007571 9.071793
v -1.159073 2.007571 10.891529
v -2.318145 -0.000000 9.071793
v -2.318145 -0.000000 10.891529
v -0.615869 1.066716 8.712070
v -1.231738 -0.000000 8.712070
v 0.615869 1.066716 8.712070
v -1.159073 -2.007572 9.071793
v -0.615869 -1.066716 8.712070
v 1.159073 -2.007572 9.071793
v 0.615869 -1.066716 8.712070
v 1.231738 -0.000000 8.712070
v 2.318145 -0.000000 9.071793
v -2.318145 -0.000000 9.071793
v 0.615869 1.066716 8.712070
v 1.159073 2.007571 9.071793
v -0.615869 1.066716 8.712070
v -1.159073 2.007571 9.071793
v -1.231738 -0.000000 8.712070
vt 0.993495 -0.472840
vt 0.993495 -0.993490
vt 0.468253 -0.993490
vt 0.468253 -0.472840
vt 0.794669 -0.131498
vt 0.731085 -0.241628
vt 0.794669 -0.351758
vt 0.921836 -0.131498
vt 0.985420 -0.241628
vt 0.921836 -0.351758
vt 0.993495 -0.472840
vt 0.468253 -0.472840
vt 0.468253 -0.993490
vt 0.993495 -0.993490
vt 0.468512 -0.987582
vt 0.993235 -0.987582
vt 0.993235 -0.474745
vt 0.468512 -0.474745
vt 0.468512 -0.474707
vt 0.468512 -0.991623
vt 0.993235 -0.991623
vt 0.993235 -0.474707
vt 0.468512 -0.474707
vt 0.993235 -0.474707
vt 0.993235 -0.991623
vt 0.468512 -0.991623
vt 0.468512 -0.991585
vt 0.468512 -0.478748
vt 0.993235 -0.478748
vt 0.993235 -0.991585
vt 0.654260 -0.117720
vt 0.520885 -0.117720
vt 0.623007 -0.171852
vt 0.658441 -0.233226
vt 0.720948 -0.233226
vt 0.623007 -0.294599
vt 0.654260 -0.348732
vt 0.552139 -0.294599
vt 0.520885 -0.348732
vt 0.516704 -0.233226
vt 0.454198 -0.233226
vt 0.552139 -0.171852
vt 0.090825 -0.609148
vt 0.018462 -0.609148
vt 0.018462 -0.979016
vt 0.090825 -0.979016
vt 0.163187 -0.609148
vt 0.163187 -0.979016
vt 0.235550 -0.609148
vt 0.235550 -0.979016
vt 0.307913 -0.609148
vt 0.307913 -0.979016
vt 0.380276 -0.609148
vt 0.380276 -0.979016
vt 0.452638 -0.609148
vt 0.452638 -0.979016
vt 0.880092 -0.098652
vt 0.975054 -0.098652
vt 0.975054 -0.014901
vt 0.880092 -0.014901
vt 0.785129 -0.098652
vt 0.785129 -0.014901
vt 0.690167 -0.098652
vt 0.690167 -0.014901
vt 0.595205 -0.098652
vt 0.595205 -0.014901
vt 0.500243 -0.098652
vt 0.500243 -0.014901
vt 0.405281 -0.098652
vt 0.405281 -0.014901
vt 0.310318 -0.098652
vt 0.310318 -0.014901
vt 0.215356 -0.098652
vt 0.215356 -0.014901
vt 0.120394 -0.098652
vt 0.120394 -0.014901
vt 0.025431 -0.098652
vt 0.025431 -0.014901
vt 0.880092 -0.098652
vt 0.975054 -0.098652
vt 0.975054 -0.014901
vt 0.880092 -0.014901
vt 0.785129 -0.098652
vt 0.785129 -0.014901
vt 0.690167 -0.098652
vt 0.690167 -0.014901
vt 0.595205 -0.098652
vt 0.595205 -0.014901
vt 0.500243 -0.098652
vt 0.500243 -0.014901
vt 0.405281 -0.098652
vt 0.405281 -0.014901
vt 0.310318 -0.098652
vt 0.310318 -0.014901
vt 0.215356 -0.098652
vt 0.215356 -0.014901
vt 0.120394 -0.098652
vt 0.120394 -0.014901
vt 0.025431 -0.098652
vt 0.025431 -0.014901
vt 0.502868 -0.370389
vt 0.502868 -0.453162
vt 0.580947 -0.453162
vt 0.580947 -0.370389
vt 0.659025 -0.453162
vt 0.659025 -0.370389
vt 0.737104 -0.453162
vt 0.737104 -0.370389
vt 0.815182 -0.453162
vt 0.815182 -0.370389
vt 0.893260 -0.453162
vt 0.893260 -0.370389
vt 0.971339 -0.453162
vt 0.971339 -0.370389
vt 0.038667 -0.413394
vt 0.119590 -0.524775
vt 0.250526 -0.567319
vt 0.038667 -0.275719
vt 0.119590 -0.164338
vt 0.250526 -0.121795
vt 0.381462 -0.164338
vt 0.462385 -0.275719
vt 0.462385 -0.413394
vt 0.381462 -0.524775
vt 0.380847 -0.524775
vt 0.249911 -0.567319
vt 0.118975 -0.524775
vt 0.461770 -0.413394
vt 0.461770 -0.275719
vt 0.380847 -0.164338
vt 0.249911 -0.121795
vt 0.118975 -0.164338
vt 0.038052 -0.275719
vt 0.038052 -0.413394
vt 0.381462 -0.524775
vt 0.250526 -0.567319
vt 0.119590 -0.524775
vt 0.462385 -0.413394
vt 0.462385 -0.275719
vt 0.381462 -0.164338
vt 0.250526 -0.121795
vt 0.119590 -0.164338
vt 0.038667 -0.275719
vt 0.038667 -0.413394
vt 0.038052 -0.413394
vt 0.118975 -0.524775
vt 0.249911 -0.567319
vt 0.038052 -0.275719
vt 0.118975 -0.164338
vt 0.249911 -0.121795
vt 0.380847 -0.164338
vt 0.461770 -0.275719
vt 0.461770 -0.413394
vt 0.380847 -0.524775
vn 0.000000 0.000000 -1.000000
vn 0.000000 0.000000 -1.000000
vn 0.000000 0.000000 -1.000000
vn 0.000000 0.000000 -1.000000
vn 0.000000 0.000000 -1.000000
vn 0.000000 0.000000 -1.000000
vn 0.000000 -0.000000 1.000000
vn 0.000000 -0.000000 1.000000
vn 0.000000 -0.000000 1.000000
vn 0.000000 -0.000000 1.000000
vn 0.000000 -0.000000 1.000000
vn 0.000000 -0.000000 1.000000
vn 0.000000 -0.000000 1.000000
vn 0.000000 -0.000000 1.000000
vn 0.000000 -0.000000 1.000000
vn 0.000000 -0.000001 1.000000
vn 0.000000 -0.000001 1.000000
vn 0.000000 -0.000001 1.000000
vn 0.000000 -0.000000 1.000000
vn 0.000000 -0.000000 1.000000
vn 0.000000 -0.000000 1.000000
vn 0.000000 -0.000000 1.000000
vn 0.000000 -0.000000 1.000000
vn 0.000000 -0.000000 1.000000
vn 0.000000 1.000000 0.000000
vn 0.000000 1.000000 0.000000
vn 0.000000 1.000000 0.000000
vn 0.000000 1.000000 0.000000
vn 0.000000 1.000000 0.000000
vn 0.000000 1.000000 0.000000
vn 1.000000 0.000000 0.000000
vn 1.000000 0.000000 0.000000
vn 1.000000 0.000000 0.000000
vn 1.000000 0.000000 0.000000
vn 1.000000 0.000000 0.000000
vn 1.000000 0.000000 0.000000
vn -1.000000 0.000000 0.000000
vn -1.000000 0.000000 0.000000
vn -1.000000 0.000000 0.000000
vn -1.000000 0.000000 0.000000
vn -1.000000 0.000000 0.000000
vn -1.000000 0.000000 0.000000
vn 0.000000 -1.000000 -0.000000
vn 0.000000 -1.000000 -0.000000
vn 0.000000 -1.000000 -0.000000
vn 0.000000 -1.000000 -0.000000
vn 0.000000 -1.000000 -0.000000
vn 0.000000 -1.000000 -0.000000
vn 0.000000 0.357123 -0.934057
vn 0.000000 0.357123 -0.934057
vn 0.000000 0.357123 -0.934057
vn -0.309277 0.178562 -0.934057
vn -0.309277 0.178562 -0.934057
vn -0.309277 0.178562 -0.934057
vn -0.309277 0.178561 -0.934058
vn -0.309277 0.178561 -0.934058
vn -0.309277 0.178561 -0.934058
vn -0.309277 -0.178560 -0.934058
vn -0.309277 -0.178560 -0.934058
vn -0.309277 -0.178560 -0.934058
vn -0.309277 -0.178562 -0.934057
vn -0.309277 -0.178562 -0.934057
vn -0.309277 -0.178562 -0.934057
vn 0.000000 -0.357122 -0.934058
vn 0.000000 -0.357122 -0.934058
vn 0.000000 -0.357122 -0.934058
vn 0.000000 -0.357123 -0.934058
vn 0.000000 -0.357123 -0.934058
vn 0.000000 -0.357123 -0.934058
vn 0.309277 -0.178562 -0.934058
vn 0.309277 -0.178562 -0.934057
vn 0.309277 -0.178562 -0.934057
vn 0.309277 -0.178561 -0.934058
vn 0.309277 -0.178561 -0.934058
vn 0.309277 -0.178561 -0.934058
vn 0.309277 0.178560 -0.934058
vn 0.309277 0.178560 -0.934058
vn 0.309277 0.178560 -0.934058
vn 0.309277 0.178562 -0.934057
vn 0.309277 0.178562 -0.934057
vn 0.309277 0.178562 -0.934057
vn 0.000000 0.357123 -0.934058
vn 0.000000 0.357123 -0.934058
vn 0.000000 0.357123 -0.934057
vn 0.000000 1.000000 0.000000
vn 0.000000 1.000000 0.000000
vn 0.000000 1.000000 0.000000
vn 0.000000 1.000000 0.000000
vn 0.000000 1.000000 0.000000
vn 0.000000 1.000000 0.000000
vn -0.866025 0.500000 0.000000
vn -0.866025 0.500000 0.000000
vn -0.866025 0.500000 0.000000
vn -0.866025 0.500000 0.000000
vn -0.866025 0.500000 0.000000
vn -0.866025 0.500000 0.000000
vn -0.866025 -0.500000 -0.000000
vn -0.866025 -0.500000 -0.000000
vn -0.866025 -0.500000 -0.000000
vn -0.866025 -0.500000 -0.000000
vn -0.866025 -0.500000 -0.000000
vn -0.866025 -0.500000 -0.000000
vn 0.000000 -1.000000 -0.000000
vn 0.000000 -1.000000 -0.000000
vn 0.000000 -1.000000 -0.000000
vn 0.000000 -1.000000 -0.000000
vn 0.000000 -1.000000 -0.000000
vn 0.000000 -1.000000 -0.000000
vn 0.866025 -0.500000 -0.000000
vn 0.866025 -0.500000 -0.000000
vn 0.866025 -0.500000 -0.000000
vn 0.866025 -0.500000 -0.000000
vn 0.866025 -0.500000 -0.000000
vn 0.866025 -0.500000 -0.000000
vn 0.866025 0.500000 0.000000
vn 0.866025 0.500000 0.000000
vn 0.866025 0.500000 0.000000
vn 0.866025 0.500000 0.000000
vn 0.866025 0.500000 0.000000
vn 0.866025 0.500000 0.000000
vn 0.000000 0.000000 -1.000000
vn 0.000000 0.000000 -1.000000
vn 0.000000 0.000000 -1.000000
vn 0.000000 0.000000 -1.000000
vn 0.000000 0.000000 -1.000000
vn 0.000000 0.000000 -1.000000
vn 0.000000 -0.587785 -0.809017
vn 0.000000 -0.587785 -0.809017
vn 0.000000 -0.587785 -0.809017
vn 0.000000 -0.587785 -0.809017
vn 0.000000 -0.587785 -0.809017
vn 0.000000 -0.587785 -0.809017
vn 0.000000 -0.951056 -0.309018
vn 0.000000 -0.951056 -0.309018
vn 0.000000 -0.951056 -0.309018
vn 0.000000 -0.951056 -0.309018
vn 0.000000 -0.951056 -0.309018
vn 0.000000 -0.951056 -0.309018
vn 0.000000 -0.951057 0.309017
vn 0.000000 -0.951056 0.309017
vn 0.000000 -0.951056 0.309017
vn 0.000000 -0.951057 0.309017
vn 0.000000 -0.951056 0.309017
vn 0.000000 -0.951056 0.309017
vn 0.000000 -0.587786 0.809017
vn 0.000000 -0.587786 0.809017
vn 0.000000 -0.587786 0.809017
vn 0.000000 -0.587786 0.809017
vn 0.000000 -0.587786 0.809017
vn 0.000000 -0.587786 0.809017
vn 0.000000 -0.000000 1.000000
vn 0.000000 -0.000000 1.000000
vn 0.000000 -0.000000 1.000000
vn 0.000000 -0.000000 1.000000
vn 0.000000 -0.000000 1.000000
vn 0.000000 -0.000000 1.000000
vn 0.000000 0.587785 0.809017
vn 0.000000 0.587785 0.809017
vn 0.000000 0.587785 0.809017
vn 0.000000 0.587785 0.809017
vn 0.000000 0.587785 0.809017
vn 0.000000 0.587785 0.809017
vn 0.000000 0.951057 0.309017
vn 0.000000 0.951057 0.309017
vn 0.000000 0.951057 0.309017
vn 0.000000 0.951057 0.309017
vn 0.000000 0.951057 0.309017
vn 0.000000 0.951057 0.309017
vn 0.000000 0.951057 -0.309017
vn 0.000000 0.951057 -0.309017
vn 0.000000 0.951057 -0.309017
vn 0.000000 0.951057 -0.309017
vn 0.000000 0.951057 -0.309017
vn 0.000000 0.951057 -0.309017
vn 0.000000 0.587785 -0.809018
vn 0.000000 0.587785 -0.809017
vn 0.000000 0.587785 -0.809017
vn 0.000000 0.587785 -0.809017
vn 0.000000 0.587785 -0.809017
vn 0.000000 0.587785 -0.809017
vn 0.000000 0.000000 -1.000000
vn 0.000000 0.000000 -1.000000
vn 0.000000 0.000000 -1.000000
vn 0.000000 0.000000 -1.000000
vn 0.000000 0.000000 -1.000000
vn 0.000000 0.000000 -1.000000
vn 0.000000 -0.587786 -0.809017
vn 0.000000 -0.587786 -0.809017
vn 0.000000 -0.587786 -0.809017
vn 0.000000 -0.587786 -0.809017
vn 0.000000 -0.587786 -0.809017
vn 0.000000 -0.587786 -0.809017
vn 0.000000 -0.951056 -0.309017
vn 0.000000 -0.951057 -0.309017
vn 0.000000 -0.951056 -0.309017
vn 0.000000 -0.951056 -0.309017
vn 0.000000 -0.951056 -0.309017
vn 0.000000 -0.951056 -0.309017
vn 0.000000 -0.951056 0.309017
vn 0.000000 -0.951057 0.309017
vn 0.000000 -0.951056 0.309017
vn 0.000000 -0.951056 0.309017
vn 0.000000 -0.951056 0.309017
vn 0.000000 -0.951057 0.309017
vn 0.000000 -0.587786 0.809017
vn 0.000000 -0.587786 0.809017
vn 0.000000 -0.587786 0.809017
vn 0.000000 -0.587786 0.809017
vn 0.000000 -0.587786 0.809017
vn 0.000000 -0.587786 0.809017
vn 0.000000 -0.000000 1.000000
vn 0.000000 -0.000000 1.000000
vn 0.000000 -0.000000 1.000000
vn 0.000000 -0.000000 1.000000
vn 0.000000 -0.000000 1.000000
vn 0.000000 -0.000000 1.000000
vn 0.000000 0.587785 0.809017
vn 0.000000 0.587785 0.809017
vn 0.000000 0.587785 0.809017
vn 0.000000 0.587785 0.809017
vn 0.000000 0.587785 0.809017
vn 0.000000 0.587785 0.809017
vn 0.000000 0.951057 0.309017
vn 0.000000 0.951057 0.309017
vn 0.000000 0.951057 0.309017
vn 0.000000 0.951057 0.309017
vn 0.000000 0.951057 0.309017
vn 0.000000 0.951057 0.309017
vn 0.000000 0.951057 -0.309017
vn 0.000000 0.951057 -0.309017
vn 0.000000 0.951057 -0.309017
vn 0.000000 0.951057 -0.309017
vn 0.000000 0.951057 -0.309017
vn 0.000000 0.951057 -0.309017
vn 0.000000 0.587785 -0.809017
vn 0.000000 0.587785 -0.809017
vn 0.000000 0.587785 -0.809017
vn 0.000000 0.587785 -0.809017
vn 0.000000 0.587785 -0.809017
vn 0.000000 0.587785 -0.809017
vn 0.000000 1.000000 0.000000
vn 0.000000 1.000000 0.000000
vn 0.000000 1.000000 0.000000
vn 0.000000 1.000000 0.000000
vn 0.000000 1.000000 0.000000
vn 0.000000 1.000000 0.000000
vn -0.866025 0.500000 0.000000
vn -0.866025 0.500000 0.000000
vn -0.866025 0.500000 0.000000
vn -0.866025 0.500000 0.000000
vn -0.866025 0.500000 0.000000
vn -0.866025 0.500000 0.000000
vn -0.866026 -0.500000 -0.000000
vn -0.866026 -0.500000 -0.000000
vn -0.866026 -0.500000 -0.000000
vn -0.866025 -0.500000 -0.000000
vn -0.866025 -0.500000 -0.000000
vn -0.866025 -0.500000 -0.000000
vn 0.000000 -1.000000 -0.000000
vn 0.000000 -1.000000 -0.000000
vn 0.000000 -1.000000 -0.000000
vn 0.000000 -1.000000 -0.000000
vn 0.000000 -1.000000 -0.000000
vn 0.000000 -1.000000 -0.000000
vn 0.866026 -0.500000 -0.000000
vn 0.866026 -0.500000 -0.000000
vn 0.866026 -0.500000 -0.000000
vn 0.866025 -0.500000 -0.000000
vn 0.866025 -0.500000 -0.000000
vn 0.866025 -0.500000 -0.000000
vn 0.866025 0.500000 0.000000
vn 0.866025 0.500000 0.000000
vn 0.866025 0.500000 0.000000
vn 0.866025 0.500000 0.000000
vn 0.866025 0.500000 0.000000
vn 0.866025 0.500000 0.000000
vn 1.000000 -0.000000 0.000000
vn 1.000000 -0.000000 0.000000
vn 1.000000 -0.000000 0.000000
vn 1.000000 0.000000 0.000000
vn 1.000000 0.000000 0.000000
vn 1.000000 0.000000 0.000000
vn 1.000000 0.000000 -0.000000
vn 1.000000 0.000000 -0.000000
vn 1.000000 0.000000 -0.000000
vn 1.000000 0.000000 0.000000
vn 1.000000 0.000000 0.000000
vn 1.000000 0.000000 0.000000
vn 1.000000 0.000000 0.000000
vn 1.000000 0.000000 0.000000
vn 1.000000 0.000000 0.000000
vn 1.000000 -0.000000 0.000000
vn 1.000000 -0.000000 0.000000
vn 1.000000 -0.000000 0.000000
vn 1.000000 0.000000 -0.000000
vn 1.000000 0.000000 -0.000000
vn 1.000000 0.000000 -0.000000
vn 1.000000 0.000000 -0.000000
vn 1.000000 0.000000 -0.000000
vn 1.000000 0.000000 -0.000000
vn -1.000000 -0.000000 0.000000
vn -1.000000 -0.000000 0.000000
vn -1.000000 -0.000000 0.000000
vn -1.000000 0.000000 0.000000
vn -1.000000 0.000000 0.000000
vn -1.000000 0.000000 0.000000
vn -1.000000 0.000000 0.000000
vn -1.000000 0.000000 0.000000
vn -1.000000 0.000000 0.000000
vn -1.000000 0.000000 0.000000
vn -1.000000 0.000000 0.000000
vn -1.000000 0.000000 0.000000
vn -1.000000 0.000000 0.000000
vn -1.000000 0.000000 0.000000
vn -1.000000 0.000000 0.000000
vn -1.000000 0.000000 0.000000
vn -1.000000 0.000000 0.000000
vn -1.000000 0.000000 0.000000
vn -1.000000 0.000000 0.000000
vn -1.000000 0.000000 0.000000
vn -1.000000 0.000000 0.000000
vn -1.000000 0.000000 0.000000
vn -1.000000 0.000000 0.000000
vn -1.000000 0.000000 0.000000
vn -1.000000 0.000000 0.000000
vn -1.000000 0.000000 0.000000
vn -1.000000 0.000000 0.000000
vn -1.000000 0.000000 0.000000
vn -1.000000 0.000000 0.000000
vn -1.000000 0.000000 0.000000
vn -1.000000 0.000000 0.000000
vn -1.000000 0.000000 0.000000
vn -1.000000 0.000000 0.000000
vn -1.000000 0.000000 0.000000
vn -1.000000 0.000000 0.000000
vn -1.000000 0.000000 0.000000
vn -1.000000 0.000000 0.000000
vn -1.000000 0.000000 0.000000
vn -1.000000 0.000000 0.000000
vn -1.000000 0.000000 0.000000
vn -1.000000 0.000000 0.000000
vn -1.000000 0.000000 0.000000
vn -1.000000 0.000000 0.000000
vn -1.000000 0.000000 0.000000
vn -1.000000 0.000000 0.000000
vn -1.000000 0.000000 0.000000
vn -1.000000 0.000000 0.000000
vn -1.000000 0.000000 0.000000
vn 1.000000 -0.000000 0.000000
vn 1.000000 -0.000000 0.000000
vn 1.000000 -0.000000 0.000000
vn 1.000000 0.000000 0.000000
vn 1.000000 0.000000 0.000000
vn 1.000000 0.000000 0.000000
vn 1.000000 0.000000 -0.000000
vn 1.000000 0.000000 -0.000000
vn 1.000000 0.000000 -0.000000
vn 1.000000 0.000000 0.000000
vn 1.000000 0.000000 0.000000
vn 1.000000 0.000000 0.000000
vn 1.000000 0.000000 0.000000
vn 1.000000 0.000000 0.000000
vn 1.000000 0.000000 0.000000
vn 1.000000 -0.000000 0.000000
vn 1.000000 -0.000000 0.000000
vn 1.000000 -0.000000 0.000000
vn 1.000000 0.000000 -0.000000
vn 1.000000 0.000000 -0.000000
vn 1.000000 0.000000 -0.000000
vn 1.000000 0.000000 -0.000000
vn 1.000000 0.000000 -0.000000
vn 1.000000 0.000000 -0.000000
s off
g camera:studio_camera_reference_smd_mesh_0
usemtl initialShadingGroup
f 86/1/1 87/2/2 88/3/3
f 85/4/4 86/1/5 88/3/6
f 118/5/7 119/6/8 120/7/9
f 117/8/10 118/5/11 120/7/12
f 116/9/13 117/8/14 120/7/15
f 115/10/16 116/9/17 120/7/18
f 106/11/19 107/12/20 108/13/21
f 105/14/22 106/11/23 108/13/24
f 102/15/25 104/16/26 103/17/27
f 101/18/28 102/15/29 103/17/30
f 98/19/31 99/20/32 100/21/33
f 97/22/34 98/19/35 100/21/36
f 95/23/37 96/24/38 94/25/39
f 93/26/40 95/23/41 94/25/42
f 90/27/43 91/28/44 92/29/45
f 89/30/46 90/27/47 92/29/48
f 153/31/49 151/32/50 152/33/51
f 153/31/52 152/33/53 154/34/54
f 149/35/55 153/31/56 154/34/57
f 149/35/58 154/34/59 144/36/60
f 143/37/61 149/35/62 144/36/63
f 143/37/64 144/36/65 146/38/66
f 145/39/67 143/37/68 146/38/69
f 145/39/70 146/38/71 147/40/72
f 148/41/73 145/39/74 147/40/75
f 148/41/76 147/40/77 150/42/78
f 151/32/79 148/41/80 150/42/81
f 151/32/82 150/42/83 152/33/84
f 140/43/85 110/44/86 109/45/87
f 134/46/88 140/43/89 109/45/90
f 141/47/91 140/43/92 134/46/93
f 135/48/94 141/47/95 134/46/96
f 114/49/97 141/47/98 135/48/99
f 113/50/100 114/49/101 135/48/102
f 123/51/103 114/49/104 113/50/105
f 124/52/106 123/51/107 113/50/108
f 133/53/109 123/51/110 124/52/111
f 132/54/112 133/53/113 124/52/114
f 142/55/115 133/53/116 132/54/117
f 131/56/118 142/55/119 132/54/120
f 57/57/121 58/58/122 56/59/123
f 55/60/124 57/57/125 56/59/126
f 70/61/127 57/57/128 55/60/129
f 68/62/130 70/61/131 55/60/132
f 61/63/133 70/61/134 68/62/135
f 63/64/136 61/63/137 68/62/138
f 53/65/139 61/63/140 63/64/141
f 54/66/142 53/65/143 63/64/144
f 65/67/145 53/65/146 54/66/147
f 64/68/148 65/67/149 54/66/150
f 74/69/151 65/67/152 64/68/153
f 73/70/154 74/69/155 64/68/156
f 67/71/157 74/69/158 73/70/159
f 66/72/160 67/71/161 73/70/162
f 62/73/163 67/71/164 66/72/165
f 71/74/166 62/73/167 66/72/168
f 72/75/169 62/73/170 71/74/171
f 69/76/172 72/75/173 71/74/174
f 60/77/175 72/75/176 69/76/177
f 59/78/178 60/77/179 69/76/180
f 16/79/181 14/80/182 15/81/183
f 13/82/184 16/79/185 15/81/186
f 25/83/187 16/79/188 13/82/189
f 22/84/190 25/83/191 13/82/192
f 28/85/193 25/83/194 22/84/195
f 29/86/196 28/85/197 22/84/198
f 12/87/199 28/85/200 29/86/201
f 11/88/202 12/87/203 29/86/204
f 24/89/205 12/87/206 11/88/207
f 23/90/208 24/89/209 11/88/210
f 32/91/211 24/89/212 23/90/213
f 31/92/214 32/91/215 23/90/216
f 19/93/217 32/91/218 31/92/219
f 26/94/220 19/93/221 31/92/222
f 20/95/223 19/93/224 26/94/225
f 21/96/226 20/95/227 26/94/228
f 30/97/229 20/95/230 21/96/231
f 27/98/232 30/97/233 21/96/234
f 18/99/235 30/97/236 27/98/237
f 17/100/238 18/99/239 27/98/240
f 129/101/241 130/102/242 136/103/243
f 137/104/244 129/101/245 136/103/246
f 137/104/247 136/103/248 138/105/249
f 139/106/250 137/104/251 138/105/252
f 139/106/253 138/105/254 112/107/255
f 111/108/256 139/106/257 112/107/258
f 111/108/259 112/107/260 122/109/261
f 121/110/262 111/108/263 122/109/264
f 121/110/265 122/109/266 126/111/267
f 128/112/268 121/110/269 126/111/270
f 128/112/271 126/111/272 127/113/273
f 125/114/274 128/112/275 127/113/276
f 8/115/277 9/116/278 10/117/279
f 7/118/280 8/115/281 10/117/282
f 6/119/283 7/118/284 10/117/285
f 5/120/286 6/119/287 10/117/288
f 4/121/289 5/120/290 10/117/291
f 3/122/292 4/121/293 10/117/294
f 2/123/295 3/122/296 10/117/297
f 1/124/298 2/123/299 10/117/300
f 82/125/301 83/126/302 84/127/303
f 81/128/304 82/125/305 84/127/306
f 80/129/307 81/128/308 84/127/309
f 79/130/310 80/129/311 84/127/312
f 78/131/313 79/130/314 84/127/315
f 77/132/316 78/131/317 84/127/318
f 76/133/319 77/132/320 84/127/321
f 75/134/322 76/133/323 84/127/324
f 40/135/325 41/136/326 42/137/327
f 39/138/328 40/135/329 42/137/330
f 38/139/331 39/138/332 42/137/333
f 37/140/334 38/139/335 42/137/336
f 36/141/337 37/140/338 42/137/339
f 35/142/340 36/141/341 42/137/342
f 34/143/343 35/142/344 42/137/345
f 33/144/346 34/143/347 42/137/348
f 50/145/349 51/146/350 52/147/351
f 49/148/352 50/145/353 52/147/354
f 48/149/355 49/148/356 52/147/357
f 47/150/358 48/149/359 52/147/360
f 46/151/361 47/150/362 52/147/363
f 45/152/364 46/151/365 52/147/366
f 44/153/367 45/152/368 52/147/369
f 43/154/370 44/153/371 52/147/372
